Ostrich_Walking_Kinematics																														
version=1																														
nRows=48																														
nColumns=31																														
inDegrees=yes																														
endheader																														
time	pelvis_tilt	pelvis_list	pelvis_rotation	pelvis_tx	pelvis_ty	pelvis_tz	R_hip_extension	R_hip_abduction	R_hip_rotation	R_knee_angle	R_knee_varus	R_knee_rotation	R_ankle_angle	R_ankle_abduction	R_ankle_rotation	R_mtp_angle	R_mtp_abduction	R_mtp_rotation	L_hip_extension	L_hip_abduction	L_hip_rotation	L_knee_angle	L_knee_varus	L_knee_rotation	L_ankle_angle	L_ankle_abduction	L_ankle_rotation	L_mtp_angle	L_mtp_abduction	L_mtp_rotation
0.3	12.132	-1.3	0.051646	1.0799	1.2101	-0.9516	41.333	-13.822	-33.872	-78.996	-19.698	-11.089	74.944	20.522	-18.121	-113.38	-4.0214	-3.8843	38.409	-18.244	-31.927	-74.159	-16.048	-6.4444	17.008	9.7962	5.5512	-34.722	7.5085	27.225
0.305	12.343	2.976	-0.25406	1.0853	1.2092	-0.95321	42.896	-17.313	-30.463	-78.621	-19.414	-11.164	74.141	21.017	-17.757	-113.61	-3.8093	-3.8597	38.505	-17.692	-32.662	-74.287	-15.967	-7.2451	16.279	9.5316	6.3192	-33.971	7.6881	27.502
0.31	12.499	-0.956	0.051504	1.0931	1.2072	-0.95092	40.667	-13.763	-32.922	-75.904	-18.003	-11.368	72.644	21.291	-16.632	-111.69	-3.4745	-3.6323	38.704	-17.848	-33	-74.883	-16.55	-7.1474	16.685	9.3338	6.0322	-33.772	7.7581	27.805
0.315	12.499	-0.757	0.051504	1.0987	1.2057	-0.95117	41.249	-14.394	-32.837	-75.484	-17.775	-11.227	71.74	21.317	-16.273	-110.97	-2.2471	-3.4619	39.072	-19.109	-31.799	-75.401	-16.292	-7.1018	16.801	9.1559	5.8916	-33.371	7.7299	28.07
0.32	12.729	2.036	-0.25406	1.1037	1.2057	-0.95117	41.992	-16.393	-30.422	-74.474	-17.282	-11.4	69.898	21.908	-15.768	-108.5	-1.7046	-3.0242	36.939	-15.289	-34.977	-73.645	-16.485	-6.9891	15.933	8.9027	6.1009	-32.593	7.814	28.187
0.325	12.917	1.103	0.063921	1.1076	1.2051	-0.95268	41.29	-15.837	-30.816	-73.096	-16.241	-11.148	68.939	21.872	-15.125	-107.76	-1.6687	-2.9266	37.347	-17.064	-33.905	-74.517	-16.656	-6.9683	16.156	8.8729	5.5418	-32.616	7.7666	28.911
0.33	13.108	-0.575	0.055064	1.1128	1.2053	-0.95036	40.678	-14.698	-32.445	-71.885	-16.11	-11.446	67.707	22.458	-14.589	-106.91	-0.9968	-2.8293	38.388	-17.422	-33.051	-75.538	-17.032	-7.122	16.451	8.6136	5.1463	-32.106	7.8822	28.935
0.335	13.085	2.117	-0.24079	1.1204	1.2032	-0.95042	41.819	-16.818	-30.265	-71.318	-15.846	-11.624	66.26	23.25	-13.731	-105.09	-1.0686	-2.4974	37.389	-15.731	-35.147	-75.129	-16.939	-7.3875	15.799	8.3479	5.5851	-30.905	8.1004	28.605
0.34	13.104	0.32	0.065427	1.126	1.2016	-0.95066	41.01	-15.622	-31.475	-69.999	-15.021	-11.185	65.038	22.832	-13.6	-103.51	0.021891	-2.1913	38.573	-18.78	-32.314	-75.953	-16.986	-6.9138	15.559	8.5836	5.198	-30.292	8.1079	28.199
0.345	13.3	-0.515	0.055064	1.1304	1.2022	-0.94942	40.474	-14.866	-32.084	-68.486	-14.438	-11.876	63.338	23.575	-12.071	-102.34	0.25821	-2.0798	38.456	-18.198	-32.964	-75.706	-17.174	-7.2396	15.357	8.5676	4.8495	-30.672	8.1937	28.687
0.35	13.255	2.124	-0.24914	1.1364	1.2012	-0.94942	41.431	-16.581	-30.066	-67.677	-14.376	-11.732	61.817	23.492	-11.509	-100.82	1.4961	-1.7672	37.755	-16.62	-34.153	-75.994	-16.8	-7.2565	15.793	8.2617	4.7164	-30.394	8.2457	28.948
0.355	13.289	0.173	0.05515	1.1414	1.2012	-0.94942	40.479	-15.201	-31.401	-66.14	-13.234	-11.745	60.405	22.989	-10.889	-99.81	2.4332	-1.6492	37.466	-15.917	-35.216	-76.148	-17.416	-7.3106	15.962	8.3473	4.463	-30.114	8.1961	29.19
0.36	13.433	0.095	0.046251	1.1483	1.1995	-0.94924	40.502	-14.938	-31.248	-65.377	-13.017	-12.422	58.788	23.939	-10.075	-97.48	2.2928	-1.2515	38.515	-17.78	-33.278	-76.628	-17.15	-7.9033	15.357	7.9354	4.7716	-29.647	8.6421	29.294
0.365	13.673	3.331	-0.68589	1.1524	1.1992	-0.94842	41.341	-17.292	-28.653	-64.703	-12.49	-12.325	56.99	23.776	-8.912	-96.085	3.536	-1.0229	39.909	-20.247	-31.251	-77.865	-17.319	-7.8344	15.381	7.869	4.671	-29.124	8.6363	29.381
0.37	13.628	0.019	0.056491	1.1577	1.1997	-0.94817	39.728	-15.021	-31.339	-62.924	-11.69	-11.926	55.876	23.65	-8.6286	-94.66	3.5601	-0.78124	37.683	-16.004	-35.184	-76.785	-17.417	-7.5356	15.036	7.6097	4.2197	-28.404	8.4893	29.614
0.375	13.682	-0.106	0.055064	1.1647	1.1981	-0.94798	40.108	-15.283	-31.508	-62.389	-11.303	-12.546	53.875	23.976	-6.7558	-93.154	4.3223	-0.54363	39.226	-18.515	-31.865	-77.841	-17.373	-7.7904	15.164	7.714	4.0922	-28.596	8.505	29.879
0.38	13.658	3.052	-0.68436	1.1707	1.1971	-0.94698	41.192	-17.275	-28.817	-61.847	-11.074	-12.317	52.281	24.05	-5.8434	-91.324	4.8068	-0.22427	38.95	-17.777	-33.031	-77.675	-17.7	-7.6684	14.882	7.3861	4.1369	-27.956	8.8918	29.407
0.385	13.66	-0.182	0.068933	1.1767	1.1961	-0.94698	39.67	-15.135	-31.417	-60.123	-10.068	-12.641	50.331	23.822	-4.6936	-89.521	5.3024	0.081838	38.156	-15.616	-34.658	-77.668	-18.014	-7.6425	15.232	7.6968	3.4749	-28.162	8.4113	30.408
0.39	13.664	3.313	-0.46244	1.1807	1.1957	-0.94717	40.96	-17.675	-28.579	-59.878	-9.7395	-12.228	49.101	23.386	-4.8464	-88.59	6.0816	0.235	38.481	-17.156	-33.387	-77.85	-17.268	-7.7049	15.057	7.1321	3.9693	-28.075	8.7093	30.521
0.395	13.651	2.121	-0.698	1.1863	1.1955	-0.94458	40.454	-16.415	-29.339	-58.809	-9.2077	-12.661	47.336	23.306	-3.2145	-86.655	6.8413	0.5604	39.059	-17.224	-33.51	-78.415	-18.16	-7.6736	14.355	7.4631	3.7852	-26.945	8.6597	29.957
0.4	13.664	1.853	-0.26033	1.1921	1.1942	-0.94592	40.326	-16.564	-29.789	-57.67	-8.8471	-12.528	45.401	22.889	-2.9195	-85.543	7.7765	0.72029	38.915	-16.441	-33.777	-78.411	-17.928	-7.807	14.715	7.3132	3.6509	-27.185	8.7798	30.007
0.405	13.466	3.049	-0.47351	1.1974	1.1938	-0.94566	41.024	-17.661	-28.709	-57.251	-7.9126	-13.064	43.557	22.735	-1.4692	-84.264	8.148	0.95425	38.301	-15.782	-34.689	-78.339	-18.087	-7.4846	14.653	7.2702	3.6018	-26.573	8.4902	30.538
0.41	13.262	1.789	-0.69971	1.2056	1.1924	-0.9431	40.518	-16.264	-29.562	-55.769	-7.6917	-12.88	41.7	22.545	-0.58998	-82.514	8.4467	1.2196	39.333	-17.883	-33.054	-78.911	-18.503	-6.7608	14.336	7.3837	3.2544	-26.054	8.5677	29.869
0.415	13.306	1.341	-0.26081	1.2107	1.1917	-0.94419	40.354	-16.539	-30.062	-55.127	-7.1099	-12.817	39.935	22.496	0.15495	-81.29	8.3397	1.4058	39.74	-18.048	-32.095	-79.182	-18.426	-7.2368	14.271	7.3373	3.2697	-26.04	8.6844	29.899
0.42	13.275	2.679	-0.46098	1.2151	1.192	-0.94414	40.68	-16.981	-28.855	-54.292	-6.6255	-12.873	38.338	21.44	0.51614	-79.474	9.3994	1.7102	37.653	-13.951	-36.43	-78.057	-18.76	-6.4134	14.231	7.2322	3.2453	-25.611	8.6502	29.689
0.425	13.287	1.554	-0.70033	1.2213	1.1913	-0.94176	40.318	-16.346	-29.9	-53.655	-6.4223	-12.187	36.992	21.236	0.63781	-78.815	9.7869	1.7588	38.774	-15.779	-34.537	-79.016	-19	-6.1554	13.929	7.4231	2.3378	-25.48	8.4303	30.262
0.43	13.075	0.136	-0.28223	1.2277	1.1909	-0.94148	39.836	-15.384	-31.207	-52.509	-5.7136	-12.342	34.865	20.117	2.0695	-76.459	10.891	2.1447	39.262	-18.064	-32.506	-78.995	-19.171	-5.6896	13.65	7.7023	2.1067	-25.311	8.581	29.429
0.435	13.075	2.447	-0.48485	1.2327	1.1903	-0.9426	40.911	-17.6	-29.513	-52.747	-5.4809	-12.039	33.486	20.111	2.4405	-75.726	10.916	2.2206	38.972	-17.554	-32.861	-78.744	-19.421	-5.5455	13.222	7.5352	2.1711	-24.801	8.3662	29.93
0.44	12.903	0.669	-0.47206	1.2407	1.1879	-0.94048	40.383	-16.165	-31.015	-51.768	-5.0952	-11.914	31.716	19.23	3.5619	-73.686	11.658	2.5792	37.582	-14.439	-35.367	-78.052	-19.206	-5.0781	13.19	7.4675	1.5734	-24.33	8.2505	29.987
0.445	12.89	1.386	-0.7146	1.2451	1.1883	-0.94044	40.914	-16.416	-30.14	-51.314	-4.5149	-12.257	29.595	18.033	4.88	-71.605	12.695	2.9703	38.952	-16.827	-33.493	-79.106	-19.917	-5.4152	12.971	7.9525	2.3421	-24.299	8.1813	29.569
0.45	12.903	2.177	-0.47206	1.2521	1.187	-0.94132	41.116	-17.605	-29.85	-51.032	-4.2346	-11.68	27.989	17.764	4.4067	-70.322	12.977	3.0434	38.651	-16.337	-33.134	-78.719	-19.648	-5.1766	12.974	7.9459	1.6654	-24.083	8.0302	29.648
0.455	12.699	0.238	-0.48363	1.2593	1.1862	-0.93891	40.716	-16.375	-31.598	-50.615	-3.748	-11.021	26.733	16.667	5.1888	-69.001	13.559	3.3642	37.18	-13.115	-36.016	-77.723	-19.679	-4.5196	12.265	7.8436	0.95725	-23.356	8.132	29.606
0.46	12.642	0.756	-0.72661	1.2656	1.1859	-0.93862	41.081	-16.944	-31.475	-50.475	-3.5764	-10.905	24.699	16.13	6.1046	-66.383	13.92	3.7977	37.105	-13.346	-35.835	-78.106	-19.961	-4.2775	12.423	7.981	0.75706	-23.43	7.8455	29.987
0.465	12.487	0.344	-0.47169	1.2714	1.1839	-0.93816	41.49	-17.15	-31.994	-50.777	-3.238	-10.658	23.522	15.094	6.7591	-64.812	14.728	4.1207	37.722	-15.253	-34.372	-78.398	-20.199	-4.3546	12.266	8.3733	0.99531	-23.3	7.8941	29.251
0.47	12.488	0.235	-0.48392	1.2803	1.1822	-0.93791	41.572	-17.12	-32.032	-50.58	-2.9023	-10.479	22.09	14.362	7.3507	-63.061	14.899	4.3786	39.403	-18.653	-31.164	-79.577	-20.359	-3.9279	12.106	8.3059	0.30826	-23.261	7.5626	30.335
0.475	12.477	0.818	-0.73518	1.2866	1.1819	-0.93762	42.116	-17.661	-31.564	-50.834	-2.5619	-10.54	20.547	13.608	8.0724	-61.036	14.992	4.8424	37.205	-13.855	-34.862	-78.204	-20.101	-4.8083	12.094	8.3667	0.95691	-23.381	7.9435	29.551
0.48	12.474	1.842	-0.93169	1.2934	1.1799	-0.93716	42.984	-18.814	-30.973	-51.661	-2.6275	-10.314	19.607	12.882	8.4735	-59.548	16.47	4.9377	37.285	-14.79	-34.672	-78.851	-20.181	-3.8939	12.355	8.0427	0.66167	-23.251	7.7004	30.055
0.485	12.514	0.23	-0.49106	1.2997	1.1796	-0.93687	42.264	-18.218	-32.59	-51.439	-2.0771	-9.7605	18.277	11.924	8.6481	-57.529	16.606	5.4208	36.712	-13.336	-35.242	-78.537	-20.577	-4.3302	12.562	8.5007	0.36196	-23.797	7.8765	29.707
0.49	12.286	0.054	-0.50115	1.3086	1.1779	-0.93662	43.051	-18.104	-32.917	-52.202	-2.5712	-9.628	18.015	11.5	8.5899	-56.72	17.4	5.5279	37.216	-15.491	-33.147	-79.076	-20.093	-4.7147	12.654	8.008	1.2521	-23.887	8.0574	29.567
0.495	12.27	1.435	-0.94694	1.3166	1.1759	-0.93562	43.642	-19.087	-31.535	-52.767	-2.3324	-9.6204	17.438	11.317	9.0525	-55.573	17.692	5.6407	37.029	-14.401	-34.579	-79.353	-20.195	-4.716	12.628	7.7029	0.48341	-24.019	8.1745	30.192
0.5	12.32	0.229	-0.49106	1.3227	1.1756	-0.93587	43.043	-18.841	-32.84	-53.12	-2.09	-8.5793	17.115	10.709	8.6846	-53.762	17.818	5.8561	37.415	-14.986	-33.968	-80.254	-20.598	-5.1429	13.506	8.5507	1.1002	-25.045	7.9941	29.64
0.505	12.32	-1.979	-0.49106	1.3319	1.1732	-0.93321	42.492	-16.895	-34.515	-53.113	-2.3492	-8.7915	16.304	10.446	9.0473	-52.038	18.148	6.0715	37.323	-15.13	-33.952	-80.615	-20.465	-5.0183	13.993	8.1429	1.467	-25.224	8.1361	29.408
0.51	12.306	1.183	-0.94034	1.3389	1.1727	-0.93433	43.999	-19.718	-31.926	-54.538	-2.0424	-8.5567	16.16	9.8537	8.7165	-51.219	19.569	6.1336	37.697	-17.511	-31.86	-81.239	-20.402	-4.8087	14.348	7.8981	0.65195	-25.654	8.1491	30.028
0.515	12.117	-0.396	-0.50309	1.3488	1.171	-0.93407	43.81	-18.714	-33.395	-54.874	-2.4289	-8.6924	15.789	9.9799	9.004	-50.019	19.158	6.2694	37.534	-17.039	-31.966	-81.189	-20.115	-5.4474	14.511	7.5621	1.1207	-26.472	8.4146	30.219
0.52	12.139	2.405	-1.0026	1.3568	1.169	-0.93307	45.184	-20.652	-30.816	-56.305	-2.6283	-8.132	16.429	9.8743	8.7726	-49.225	19.547	6.2664	36.777	-16.213	-32.693	-81.175	-19.987	-5.0455	15.001	7.7347	1.0736	-27.016	8.3166	29.65
0.525	11.925	0.505	-0.71302	1.3639	1.1687	-0.93333	44.81	-19.386	-32.691	-56.35	-3.1133	-8.3938	15.825	9.6471	9.0314	-47.954	20.557	6.3157	36.236	-14.714	-33.198	-81.284	-19.7	-6.1134	15.058	7.9579	1.3277	-27.73	8.4434	29.624
0.53	11.921	-0.771	-0.94787	1.3722	1.167	-0.93091	44.371	-18.168	-33.56	-56.78	-3.2238	-8.3698	16.247	9.5744	8.8703	-47.484	20.902	6.3638	35.774	-14.241	-33.947	-81.373	-20.241	-6.1677	15.647	8.1647	1.6051	-28.817	8.1734	29.824
0.535	11.7	2.455	-1.0117	1.3818	1.165	-0.93207	45.965	-20.949	-30.847	-58.347	-3.2042	-7.9121	16.864	9.4418	8.9003	-46.613	20.941	6.3831	37.774	-17.367	-31.589	-83.308	-20.681	-6.1606	16.414	8.0965	1.442	-30.35	8.3574	29.794
